# xmcd
#
# Track frame offsets:
#   150
#   17180
#   34247
#   53619
#   69979
#   80618
#   95877
#   118577
#   135621
#   152559
#   169675
#   189055
#   205386
#   216096
#   231383
#   254211
#
# Disc length: 3615 seconds
#
# Revision: 0
# Processed by: cddbd v1.5.1PL2 Copyright (c) Steve Scherf et al.
# Submitted via: uFREEDB ActiveX Control 1.5
#
DISCID=e30e1d10
DTITLE=Débora e Léia - Restauração
DYEAR=1900
DGENRE=Gospel and Religious
TTITLE0=Restauração
TTITLE1=O grande eu sou
TTITLE2=É preciso agradecer
TTITLE3=Louve na Prova
TTITLE4=Este é o meu Deus
TTITLE5=Resposta do Pai
TTITLE6=Verdades
TTITLE7=Busca
TTITLE8=9
TTITLE9=10
TTITLE10=11
TTITLE11=12
TTITLE12=13
TTITLE13=14
TTITLE14=15
TTITLE15=16
EXTD=
EXTT0=
EXTT1=
EXTT2=
EXTT3=
EXTT4=
EXTT5=
EXTT6=
EXTT7=
EXTT8=
EXTT9=
EXTT10=
EXTT11=
EXTT12=
EXTT13=
EXTT14=
EXTT15=
PLAYORDER=
